<!DOCTYPE svg PUBLIC "-//W3C//DTD SVG 1.1//EN" "http://www.w3.org/Graphics/SVG/1.1/DTD/svg11.dtd">
<!-- Uploaded to: SVG Repo, www.svgrepo.com, Transformed by: SVG Repo Mixer Tools -->
<svg height="256px" width="256px" version="1.1" id="Layer_1" xmlns="http://www.w3.org/2000/svg" xmlns:xlink="http://www.w3.org/1999/xlink" viewBox="0 0 508 508" xml:space="preserve" fill="#000000">
<g id="SVGRepo_bgCarrier" stroke-width="0"/>
<g id="SVGRepo_tracerCarrier" stroke-linecap="round" stroke-linejoin="round"/>
<g id="SVGRepo_iconCarrier"> <path style="fill:#F4EFEF;" d="M472,222.6c1.2,0,2,0.8,2,2v101.6h2c14.4,0,26-11.6,26-26v-96c0-14.4-12.4-26-26.8-26h-4.4 c-1.2,0-2-0.8-2-2v-6c0-27.6-22.8-49.2-50-49.2H54c-27.6,0-48,19.6-48,46.8v168.4c0,27.6,21.6,49.6,48.8,49.6H420 c27.6,0,50-22.4,50-49.6v-8.4V224.2C470,223.4,470.8,222.6,472,222.6z"/> <path style="fill:#54B265;" d="M58.4,153c-12,0-20.4,7.2-20.4,19.2v160.4c0,12,8,24.4,20.4,24.4h292L145.2,153H58.4z"/> <path style="fill:#CDEEF9;" d="M352,357h62.4c12,0,21.6-10.8,21.6-22.8v-160c0-12-10-21.2-22-21.2H147.6L352,357L352,357z"/> <path d="M56.8,392.2C26,392.2,0,366.6,0,336.6V168.2c0-29.6,25.2-52.8,57.6-52.8h364.8c30.8,0,55.6,24.8,55.6,55.2v2 c16.8,0.4,30,14.4,30,32v96c0,17.6-14.4,32-32,32l0,0v4.4c0,30.8-24.8,55.6-55.2,55.6L56.8,392.2z M57.6,123 C29.6,123,8,142.6,8,167.8v168.4c0,26,22.4,47.6,48.8,47.6h364c26,0,47.2-21.6,47.2-47.6v-8.4c0-1.2,0.4-2,1.2-2.8 c0.8-0.8,2-1.2,2.8-1.2h4c13.2,0,24-10.8,24-24v-96c0-13.2-10-24-23.2-24l0,0H474c-2,0-3.6-1.6-4-3.6l-0.4-6 c0-26.4-21.2-47.6-47.6-47.6H57.6V123z"/> <path d="M472,333c-2.4,0-4-1.6-4-4V225c0-2.4,1.6-4,4-4s4,1.6,4,4v104C476,331.4,474.4,333,472,333z"/> <path d="M418,363H62c-15.6,0-30-14.8-30-30.4V172.2c0-16,15.2-25.2,30-25.2h356c15.6,0,27.2,11.6,27.2,26.8c0,2.4-1.6,4-4,4 s-4-1.6-4-4c0-10.8-8-18.8-19.2-18.8H62c-10.8,0-22,6.4-22,17.2v160.4c0,11.2,11.2,22.4,22,22.4h356.4c11.2,0,18-11.2,18-22V221 c0-2.4,1.6-4,4-4s4,1.6,4,4v112C444,347.8,434.4,363,418,363z"/> <path d="M354.4,359.8c-1.2,0-2-0.4-2.8-1.2L148,155c-1.6-1.6-1.6-4,0-5.6s4-1.6,5.6,0L357.2,353c1.6,1.6,1.6,4,0,5.6 C356.4,359.4,355.2,359.8,354.4,359.8z"/> </g>
</svg>