<?xml version="1.0" encoding="utf-8"?>

<!-- Uploaded to: SVG Repo, www.svgrepo.com, Generator: SVG Repo Mixer Tools -->
<svg fill="#000000" height="800px" width="800px" version="1.1" id="Icons" xmlns="http://www.w3.org/2000/svg" xmlns:xlink="http://www.w3.org/1999/xlink" 
	 viewBox="0 0 32 32" xml:space="preserve">
<g>
	<path d="M28.8,23.4l-0.9-1.3c-0.6-0.9-0.9-2-0.9-3.1c0-2.2-1.8-4-4-4s-4,1.8-4,4c0,1.1-0.3,2.2-0.9,3.1l-0.9,1.3
		c-0.2,0.3-0.2,0.7,0,1S17.6,25,18,25h10c0.4,0,0.7-0.2,0.9-0.5S29,23.8,28.8,23.4z"/>
	<path d="M15.5,22.3l0.9-1.3c0.4-0.6,0.6-1.3,0.6-2c0-3.3,2.7-6,6-6c3.1,0,5.6,2.3,6,5.4c0-0.1,0-0.2,0-0.4V9c0-2.8-2.2-5-5-5H8
		C5.2,4,3,6.2,3,9v19c0,0.4,0.2,0.7,0.6,0.9C3.7,29,3.9,29,4,29c0.2,0,0.5-0.1,0.7-0.2c3-2.6,6.6-4.3,10.4-5.2
		C15.1,23.1,15.2,22.7,15.5,22.3z M11,11h6c0.6,0,1,0.4,1,1s-0.4,1-1,1h-6c-0.6,0-1-0.4-1-1S10.4,11,11,11z M14,17h-3
		c-0.6,0-1-0.4-1-1s0.4-1,1-1h3c0.6,0,1,0.4,1,1S14.6,17,14,17z"/>
	<path d="M25,26h-4c-0.6,0-1,0.4-1,1c0,1.7,1.3,3,3,3s3-1.3,3-3C26,26.4,25.6,26,25,26z"/>
</g>
</svg>